<mxfile host="app.diagrams.net" modified="2023-12-21T18:01:11.789Z" agent="Mozilla/5.0 (Windows NT 10.0; Win64; x64) AppleWebKit/537.36 (KHTML, like Gecko) Chrome/120.0.0.0 Safari/537.36" version="22.1.11" etag="4e_jjGn4Ap8U2l-gJrsz" type="github">
  <diagram name="Page-1" id="PRhyGiTYgrQZmbUurDEM">
    <mxGraphModel>
      <root>
        <mxCell id="0" />
        <mxCell id="1" parent="0" />
      </root>
    </mxGraphModel>
  </diagram>
</mxfile>
